# xmcd
#
# Track frame offsets: 
#        150
#        14437
#        28687
#        40837
#
# Disc length: 712 seconds
#
# Revision: 0
# Processed by: cddbd v1.5.2PL0 Copyright (c) Steve Scherf et al.
# Submitted via: ExactAudioCopy v0.99pb4
#
DISCID=2802c604
DTITLE=Joel Harries - Graves EP
DYEAR=2012
DGENRE=Folk
TTITLE0=Built For This
TTITLE1=Awake
TTITLE2=On Your Sleeve
TTITLE3=Flinch
EXTD=
EXTT0=
EXTT1=
EXTT2=
EXTT3=
PLAYORDER=
